<svg xmlns="http://www.w3.org/2000/svg" width="1440" height="820" viewBox="0 0 1440 820">
  <rect width="1440" height="820" fill="#f7f7f4"/>

  <rect x="0" y="0" width="1440" height="28" fill="#f2f2ef"/>
  <circle cx="18" cy="14" r="6" fill="#ff5f57"/>
  <circle cx="38" cy="14" r="6" fill="#ffbd2e"/>
  <circle cx="58" cy="14" r="6" fill="#28c840"/>
  <text x="82" y="18" font-family="Inter, Arial, sans-serif" font-size="12" font-weight="700" fill="#3c4043">BanguesesDraw</text>

  <rect x="0" y="28" width="272" height="792" fill="#ffffff"/>
  <line x1="272" y1="28" x2="272" y2="820" stroke="#deded8"/>

  <text x="20" y="72" font-family="Inter, Arial, sans-serif" font-size="19" font-weight="800" fill="#202124">BanguesesDraw</text>
  <rect x="188" y="48" width="36" height="36" rx="7" fill="#ecebe4"/>
  <path d="M201 66h14M208 59v14" stroke="#202124" stroke-width="2" stroke-linecap="round"/>
  <rect x="230" y="48" width="36" height="36" rx="7" fill="#ecebe4"/>
  <path d="M239 66c4-7 14-7 18 0M243 62l-6-6M253 70l6 6" stroke="#202124" stroke-width="2" stroke-linecap="round"/>

  <rect x="14" y="105" width="244" height="58" rx="8" fill="#ecebe4"/>
  <text x="28" y="130" font-family="Inter, Arial, sans-serif" font-size="15" fill="#202124">Reference diagrams</text>
  <text x="229" y="130" text-anchor="end" font-family="Inter, Arial, sans-serif" font-size="13" fill="#676b73">6</text>
  <rect x="28" y="139" width="104" height="16" rx="8" fill="#ffffff"/>
  <text x="80" y="151" text-anchor="middle" font-family="Inter, Arial, sans-serif" font-size="10" fill="#676b73">visible</text>

  <g opacity="0.72">
    <text x="28" y="194" font-family="Inter, Arial, sans-serif" font-size="15" fill="#202124">Client A</text>
    <text x="229" y="194" text-anchor="end" font-family="Inter, Arial, sans-serif" font-size="13" fill="#676b73">2</text>
    <text x="28" y="242" font-family="Inter, Arial, sans-serif" font-size="15" fill="#202124">Client B</text>
    <text x="229" y="242" text-anchor="end" font-family="Inter, Arial, sans-serif" font-size="13" fill="#676b73">4</text>
    <text x="28" y="290" font-family="Inter, Arial, sans-serif" font-size="15" fill="#202124">Enablement</text>
    <text x="229" y="290" text-anchor="end" font-family="Inter, Arial, sans-serif" font-size="13" fill="#676b73">8</text>
  </g>

  <text x="304" y="78" font-family="Inter, Arial, sans-serif" font-size="12" fill="#676b73">PROJECT</text>
  <text x="304" y="103" font-family="Inter, Arial, sans-serif" font-size="22" font-weight="800" fill="#202124">Reference diagrams</text>

  <g transform="translate(664 56)">
    <rect x="0" y="0" width="38" height="38" rx="8" fill="#ecebe4"/>
    <path d="M19 10v18M10 19h18" stroke="#202124" stroke-width="2" stroke-linecap="round"/>
    <text x="19" y="54" text-anchor="middle" font-family="Inter, Arial, sans-serif" font-size="10" fill="#676b73">Settings</text>
  </g>

  <g transform="translate(718 56)">
    <rect x="0" y="0" width="112" height="38" rx="8" fill="#ffffff" stroke="#d7d7d0"/>
    <path d="M18 22v-9M13 18l5-5 5 5M12 25h14" stroke="#202124" stroke-width="1.8" stroke-linecap="round" stroke-linejoin="round"/>
    <text x="46" y="24" font-family="Inter, Arial, sans-serif" font-size="14" fill="#202124">Import</text>
  </g>

  <line x1="846" y1="56" x2="846" y2="94" stroke="#deded8"/>

  <g transform="translate(862 56)">
    <rect x="0" y="0" width="126" height="38" rx="8" fill="#ffffff" stroke="#d7d7d0"/>
    <path d="M16 14h14v12H16zM19 14v-3h8v3" stroke="#202124" stroke-width="1.8" fill="none" stroke-linejoin="round"/>
    <text x="44" y="24" font-family="Inter, Arial, sans-serif" font-size="14" fill="#202124">AI diagram</text>
  </g>

  <line x1="1004" y1="56" x2="1004" y2="94" stroke="#deded8"/>

  <g transform="translate(1020 56)">
    <rect x="0" y="0" width="112" height="38" rx="8" fill="#202124"/>
    <path d="M20 12v14M13 19h14" stroke="#ffffff" stroke-width="2" stroke-linecap="round"/>
    <text x="44" y="24" font-family="Inter, Arial, sans-serif" font-size="14" font-weight="700" fill="#ffffff">New</text>
    <path d="M91 16l5 5 5-5" stroke="#ffffff" stroke-width="1.8" fill="none" stroke-linecap="round" stroke-linejoin="round"/>
  </g>

  <g transform="translate(1020 102)">
    <rect x="0" y="0" width="214" height="132" rx="9" fill="#ffffff" stroke="#deded8"/>
    <text x="18" y="31" font-family="Inter, Arial, sans-serif" font-size="14" fill="#202124">Note</text>
    <rect x="176" y="17" width="20" height="20" rx="5" fill="#f7f7f4" stroke="#d7d7d0"/>
    <text x="186" y="31" text-anchor="middle" font-family="Inter, Arial, sans-serif" font-size="11" fill="#676b73">1</text>
    <line x1="12" y1="44" x2="202" y2="44" stroke="#eeeeea"/>
    <text x="18" y="74" font-family="Inter, Arial, sans-serif" font-size="14" fill="#202124">Excalidraw canvas</text>
    <rect x="176" y="60" width="20" height="20" rx="5" fill="#f7f7f4" stroke="#d7d7d0"/>
    <text x="186" y="74" text-anchor="middle" font-family="Inter, Arial, sans-serif" font-size="11" fill="#676b73">2</text>
    <line x1="12" y1="88" x2="202" y2="88" stroke="#eeeeea"/>
    <text x="18" y="118" font-family="Inter, Arial, sans-serif" font-size="14" fill="#202124">Mermaid flowchart</text>
    <rect x="176" y="104" width="20" height="20" rx="5" fill="#f7f7f4" stroke="#d7d7d0"/>
    <text x="186" y="118" text-anchor="middle" font-family="Inter, Arial, sans-serif" font-size="11" fill="#676b73">3</text>
  </g>

  <rect x="304" y="132" width="980" height="42" rx="7" fill="#ffffff" stroke="#d7d7d0"/>
  <text x="320" y="158" font-family="Inter, Arial, sans-serif" font-size="15" fill="#9aa0a6">Filter artifacts</text>

  <g transform="translate(304 204)">
    <rect x="0" y="0" width="980" height="42" rx="8" fill="#ffffff" stroke="#deded8"/>
    <text x="16" y="27" font-family="Inter, Arial, sans-serif" font-size="12" font-weight="700" fill="#676b73">NAME</text>
    <text x="560" y="27" font-family="Inter, Arial, sans-serif" font-size="12" font-weight="700" fill="#676b73">TYPE</text>
    <text x="704" y="27" font-family="Inter, Arial, sans-serif" font-size="12" font-weight="700" fill="#676b73">UPDATED</text>
  </g>

  <g transform="translate(304 246)">
    <rect x="0" y="0" width="980" height="56" fill="#ffffff" stroke="#eeeeea"/>
    <rect x="0" y="0" width="4" height="56" fill="#ef3340"/>
    <text x="18" y="34" font-family="Inter, Arial, sans-serif" font-size="15" fill="#202124">Twilio reference architecture</text>
    <rect x="560" y="17" width="78" height="24" rx="12" fill="#fff7f7" stroke="#f2b8b8"/>
    <text x="599" y="33" text-anchor="middle" font-family="Inter, Arial, sans-serif" font-size="12" fill="#b3261e">Note</text>
    <text x="704" y="34" font-family="Inter, Arial, sans-serif" font-size="14" fill="#3c4043">06/07/2026, 16:41</text>
    <g transform="translate(870 10)" opacity="0.75">
      <rect x="0" y="0" width="36" height="36" rx="7" fill="#f1f1ed"/>
      <rect x="46" y="0" width="36" height="36" rx="7" fill="#f1f1ed"/>
      <rect x="92" y="0" width="36" height="36" rx="7" fill="#f1f1ed"/>
    </g>
  </g>

  <g transform="translate(304 302)">
    <rect x="0" y="0" width="980" height="56" fill="#ffffff" stroke="#eeeeea"/>
    <text x="18" y="34" font-family="Inter, Arial, sans-serif" font-size="15" fill="#202124">Messaging journey map</text>
    <rect x="560" y="17" width="96" height="24" rx="12" fill="#f7f7f4" stroke="#d7d7d0"/>
    <text x="608" y="33" text-anchor="middle" font-family="Inter, Arial, sans-serif" font-size="12" fill="#555b66">Excalidraw</text>
    <text x="704" y="34" font-family="Inter, Arial, sans-serif" font-size="14" fill="#3c4043">06/07/2026, 15:12</text>
  </g>

  <g transform="translate(304 358)">
    <rect x="0" y="0" width="980" height="56" rx="0 0 8 8" fill="#ffffff" stroke="#eeeeea"/>
    <text x="18" y="34" font-family="Inter, Arial, sans-serif" font-size="15" fill="#202124">Conversation routing flow</text>
    <rect x="560" y="17" width="76" height="24" rx="12" fill="#eef8f0" stroke="#b8d7c3"/>
    <text x="598" y="33" text-anchor="middle" font-family="Inter, Arial, sans-serif" font-size="12" fill="#32724a">Mermaid</text>
    <text x="704" y="34" font-family="Inter, Arial, sans-serif" font-size="14" fill="#3c4043">05/07/2026, 18:02</text>
  </g>

  <text x="304" y="470" font-family="Inter, Arial, sans-serif" font-size="13" fill="#676b73">Wireframe notes: project actions stay quiet until hover; create actions live behind one primary New menu; artifact rows use stable columns.</text>
</svg>
